<svg version="1.2" xmlns="http://www.w3.org/2000/svg" viewBox="0 0 500 500" width="500" height="500">
	<title>Mobile login</title>
	<style>
		.s0 { fill: #e6e6e6 } 
		.s1 { fill: #e0e0e0 } 
		.s2 { fill: #fafafa } 
		.s3 { fill: #f5f5f5 } 
		.s4 { fill: #f0f0f0 } 
		.s5 { fill: #ffffff } 
		.s6 { fill: #e58a7b } 
		.s7 { fill: #407bff } 
		.s8 { opacity: .2;fill: #000000 } 
		.s9 { mix-blend-mode: multiply;fill: #e8ecf1 } 
		.s10 { fill: #263238 } 
		.s11 { fill: #cf6f64 } 
		.s12 { fill: #df5753 } 
		.s13 { opacity: .6;fill: #fafafa } 
		.s14 { opacity: .1;fill: #407bff } 
		.s15 { opacity: .5;fill: #407bff } 
		.s16 { opacity: .1;fill: #ffffff } 
		.s17 { opacity: .6;fill: #000000 } 
		.s18 { opacity: .4;fill: #000000 } 
		.s19 { opacity: .4;fill: #ffffff } 
		.s20 { mix-blend-mode: multiply;fill: #f5f5f5 } 
		.s21 { opacity: .3;fill: #ffffff } 
	</style>
	<g id="Background complete">
		<g id="&lt;Group&gt;">
			<g id="&lt;Group&gt;">
				<path id="&lt;Path&gt;" class="s0" d="m500 382.6h-500v-0.2h500z"/>
				<path id="&lt;Path&gt;" class="s0" d="m124.8 397.8h-33.1v-0.3h33.1z"/>
				<path id="&lt;Path&gt;" class="s0" d="m81.2 397.8h-19.2v-0.3h19.2z"/>
				<path id="&lt;Path&gt;" class="s0" d="m210.6 401.5h-19.2v-0.3h19.2z"/>
				<path id="&lt;Path&gt;" class="s0" d="m310.6 407h-43.2v-0.2h43.2z"/>
				<path id="&lt;Path&gt;" class="s0" d="m258.5 407h-6.3v-0.2h6.3z"/>
				<path id="&lt;Path&gt;" class="s0" d="m453.3 401.5h-93.6v-0.3h93.6z"/>
				<g id="&lt;Group&gt;">
					<path id="&lt;Compound Path&gt;" class="s0" d="m237 337.8h-193.1c-3.1 0-5.7-2.6-5.7-5.7v-271.4c0-3.2 2.6-5.7 5.7-5.7h193.1c3.2 0 5.7 2.5 5.7 5.7v271.4c0 3.1-2.5 5.7-5.7 5.7zm-193.1-282.6c-3 0-5.4 2.5-5.4 5.5v271.4c0 3 2.4 5.4 5.4 5.4h193.1c3 0 5.5-2.4 5.5-5.4v-271.4c0-3-2.5-5.5-5.5-5.5z"/>
					<path id="&lt;Compound Path&gt;" class="s0" d="m453.3 337.8h-193.1c-3.1 0-5.7-2.6-5.7-5.7v-271.4c0-3.2 2.6-5.7 5.7-5.7h193.1c3.2 0 5.7 2.5 5.7 5.7v271.4c0 3.1-2.5 5.7-5.7 5.7zm-193.1-282.6c-3 0-5.4 2.5-5.4 5.5v271.4c0 3 2.4 5.4 5.4 5.4h193.1c3 0 5.5-2.4 5.5-5.4v-271.4c0-3-2.5-5.5-5.5-5.5z"/>
				</g>
			</g>
			<g id="&lt;Group&gt;">
				<path id="&lt;Path&gt;" class="s1" d="m267.4 384.2h-22v-87.2h22z"/>
				<path id="&lt;Path&gt;" class="s2" d="m263.2 384.2h4.2v-11.9h-8.6z"/>
				<path id="&lt;Path&gt;" class="s1" d="m171 384.2h-21.9v-87.2h21.9z"/>
				<path id="&lt;Path&gt;" class="s2" d="m267.4 376.9h-100v-79.9h100z"/>
				<path id="&lt;Compound Path&gt;" class="s1" d="m264.2 300.5h-93.6v21.9h93.6zm-0.4 0.4v21.2h-92.8v-21.2z"/>
				<path id="&lt;Path&gt;" class="s2" d="m171.6 384.2h-4.2v-11.9h8.6z"/>
				<path id="&lt;Path&gt;" class="s0" d="m215.2 311.5c0 1.2 1 2.2 2.2 2.2 1.2 0 2.2-1 2.2-2.2 0-1.2-1-2.2-2.2-2.2-1.2 0-2.2 1-2.2 2.2z"/>
				<path id="&lt;Compound Path&gt;" class="s1" d="m264.2 326h-93.6v21.9h93.6zm-0.4 0.4v21.1h-92.8v-21.1z"/>
				<path id="&lt;Path&gt;" class="s0" d="m215.2 336.9c0 1.3 1 2.3 2.2 2.3 1.2 0 2.2-1 2.2-2.3 0-1.2-1-2.2-2.2-2.2-1.2 0-2.2 1-2.2 2.2z"/>
				<path id="&lt;Compound Path&gt;" class="s1" d="m264.2 351.5h-93.6v21.9h93.6zm-0.4 0.4v21.1h-92.8v-21.1z"/>
				<path id="&lt;Path&gt;" class="s0" d="m215.2 362.4c0 1.2 1 2.2 2.2 2.2 1.2 0 2.2-1 2.2-2.2 0-1.2-1-2.2-2.2-2.2-1.2 0-2.2 1-2.2 2.2z"/>
			</g>
			<g id="&lt;Group&gt;">
				<path id="&lt;Path&gt;" class="s1" d="m157.6 384.2h-22v-137.9h22z"/>
				<path id="&lt;Path&gt;" class="s2" d="m153.4 384.2h4.2v-11.9h-8.5z"/>
				<path id="&lt;Path&gt;" class="s1" d="m75.4 384.2h-22v-137.9h22z"/>
				<path id="&lt;Path&gt;" class="s2" d="m157.6 376.9h-85.8v-130.6h85.8z"/>
				<path id="&lt;Compound Path&gt;" class="s1" d="m154.4 249.6h-79.4v30.4h79.4zm-0.5 0.5v29.6h-78.4v-29.6z"/>
				<path id="&lt;Compound Path&gt;" class="s1" d="m154.4 282.7h-38.3v79.4h38.3zm-0.5 0.4v78.5h-37.3v-78.5z"/>
				<path id="&lt;Compound Path&gt;" class="s1" d="m113.3 282.7h-38.3v79.4h38.3zm-0.5 0.4v78.5h-37.3v-78.5z"/>
				<path id="&lt;Path&gt;" class="s2" d="m76 384.2h-4.2v-11.9h8.5z"/>
				<path id="&lt;Path&gt;" class="s0" d="m112.5 264.8c0 1.2 1 2.2 2.2 2.2 1.2 0 2.2-1 2.2-2.2 0-1.2-1-2.2-2.2-2.2-1.2 0-2.2 1-2.2 2.2z"/>
				<path id="&lt;Path&gt;" class="s0" d="m120.4 320.5c0 1.2 1 2.2 2.2 2.2 1.2 0 2.2-1 2.2-2.2 0-1.2-1-2.2-2.2-2.2-1.2 0-2.2 1-2.2 2.2z"/>
				<path id="&lt;Path&gt;" class="s0" d="m104.6 320.5c0 1.2 1 2.2 2.2 2.2 1.2 0 2.2-1 2.2-2.2 0-1.2-1-2.2-2.2-2.2-1.2 0-2.2 1-2.2 2.2z"/>
			</g>
			<path id="&lt;Path&gt;" class="s1" d="m102.1 207.9h-9.3c0 0 1.6 8.5 1.6 13.6 0 5-7 24.8 3 24.8 10.1 0 3.1-19.8 3.1-24.8 0-5.1 1.6-13.6 1.6-13.6z"/>
			<path id="&lt;Path&gt;" class="s3" d="m66.8 228.1v6.1c0 6.7 5.5 12.1 12.1 12.1h6.1c6.6 0 12.1-5.4 12.1-12.1v-6.1z"/>
			<path id="&lt;Path&gt;" class="s1" d="m195.7 284.3c0 7 7.8 12.7 17.4 12.7h8.6c9.6 0 17.4-5.7 17.4-12.7z"/>
			<g id="&lt;Group&gt;">
				<path id="&lt;Path&gt;" class="s1" d="m424.6 274c-5.2 4.3-12.5 12.1-19.1 23.2-4.4 7.3-7.1 15-8.2 25.1 0-11.5 0-23.8 0.1-35.5 1.3-3 4.3-9.9 6.5-15.4 7.3-18.2 10-22.7 16.6-38.4 8.7-21 17.6-45.9 15.1-43.9-5.3 4.1-25.3 41.5-27.4 46.9-7.5 18.4-9.5 31.9-10.8 44.9 0-11 0.1-21.1 0.1-28.8 0.1-25.3 0.6-33.5 0.8-36 0.8-1.3 1.8-2.8 2.3-3.6 4.7-6.8 6.5-12.6 10.9-22.7 6.3-14.4 11.7-39.8 10.1-38.6-6.5 5.4-11.7 16.9-18.5 31.6-6.9 14.6-4.9 23.1-6.3 35.6-0.2 2.5-0.5 11.7-0.6 24.6-1.8-13.7-5.1-22.7-11.1-30.9-7.5-10.1-14.7-16.9-20-20.5-5.3-3.6 9.1 21.2 16 32 6.2 9.7 11.8 18.2 15 26.5-0.2 17.5-0.2 39.5-0.2 60.1-1.6-9.4-4.2-19.5-7.6-27.2-4.2-9.4-10.5-23.8-15.6-28.6-1.2-1.2 5.3 26.7 9.5 34.1 4.1 7.5 7.2 14.5 9.8 18.7 0.7 1 2.7 4.7 3.9 6.9 0 25.1 0.1 47.2 0.3 54.8h1.1c-0.1-2-0.1-14.7-0.1-31.6 2.6-9.2 8.6-19.6 13.5-29.2 5.4-10.4 19.1-38.3 13.9-34.1z"/>
				<g id="&lt;Group&gt;">
					<path id="&lt;Path&gt;" class="s4" d="m412.4 384.2h-31.3l-2.4-30.7h36.1z"/>
					<path id="&lt;Path&gt;" class="s3" d="m417.1 357.1h-40.7l-1.2-10.4h43.1z"/>
				</g>
			</g>
			<g id="&lt;Group&gt;">
				<path id="&lt;Path&gt;" class="s1" d="m124.3 137h-56.1v-61.5h56.1z"/>
				<path id="&lt;Path&gt;" class="s3" d="m130.3 137h-57.9v-61.5h57.9z"/>
				<path id="&lt;Path&gt;" class="s5" d="m77.3 132.2v-51.9h48.2v51.9z"/>
				<path id="&lt;Path&gt;" class="s3" d="m89 119.6v-26.7h24.8v26.7z"/>
			</g>
			<g id="&lt;Group&gt;">
				<g id="&lt;Group&gt;">
					<path id="&lt;Path&gt;" class="s1" d="m410.1 139.8h-52.1v-57.1h52.1z"/>
					<path id="&lt;Path&gt;" class="s3" d="m415.7 139.8h-53.8v-57.1h53.8z"/>
					<path id="&lt;Path&gt;" class="s5" d="m366.4 135.3v-48.1h44.8v48.1z"/>
				</g>
				<path id="&lt;Path&gt;" class="s3" d="m402.8 111.3c0 7.7-6.3 13.9-14 13.9-7.7 0-14-6.2-14-13.9 0-7.8 6.3-14 14-14 7.7 0 14 6.2 14 14z"/>
			</g>
			<g id="&lt;Group&gt;">
				<g id="&lt;Group&gt;">
					<path id="&lt;Path&gt;" class="s1" d="m182.5 157.9h-41.6v-45.7h41.6z"/>
					<path id="&lt;Path&gt;" class="s3" d="m187 157.9h-43v-45.7h43z"/>
					<path id="&lt;Path&gt;" class="s5" d="m147.6 154.3v-38.5h35.8v38.5z"/>
					<path id="&lt;Path&gt;" class="s3" d="m165.5 125.3l-9.8 16.9h19.6z"/>
				</g>
			</g>
		</g>
	</g>
	<g id="Shadow">
		<path id="&lt;Path&gt;" class="s3" d="m443.9 416.2c0 6.3-86.8 11.4-193.9 11.4-107.1 0-193.9-5.1-193.9-11.4 0-6.2 86.8-11.3 193.9-11.3 107.1 0 193.9 5.1 193.9 11.3z"/>
	</g>
	<g id="Character 2">
		<g id="&lt;Group&gt;">
			<path id="&lt;Path&gt;" class="s6" d="m349.2 163.4l-9.9-4c0 0-13.1 23.9-16.8 25.1-5.1 1.6-15.7 6.2-21.9 7-0.9 1-2.3 4.1-2.1 5.3 8.4 2.8 26.9-0.9 30.8-3.9 9-6.7 19.9-29.5 19.9-29.5z"/>
			<g id="&lt;Group&gt;">
				<path id="&lt;Path&gt;" class="s7" d="m352.3 158c1.8 6.9-8.2 20.6-8.2 20.6l-13.1-7.4c0 0 2.4-5.6 5.4-11.4 4.9-9.3 13.8-9.6 15.9-1.8z"/>
				<path id="&lt;Path&gt;" class="s8" d="m352.3 158c1.8 6.9-8.2 20.6-8.2 20.6l-13.1-7.4c0 0 2.4-5.6 5.4-11.4 4.9-9.3 13.8-9.6 15.9-1.8z"/>
			</g>
			<path id="&lt;Path&gt;" class="s8" d="m336.2 174.1l5.2 2.9 0.9-15.8c-3 2.3-5.1 9.2-6.1 12.9z"/>
			<g id="&lt;Group&gt;">
				<path id="&lt;Path&gt;" class="s7" d="m343.7 152.9c0 0-10.3 22.7-4.3 65 12.1 0 34.4 0 40.3 0 0.6-6.1-1.5-36.3 6.2-65.4 0 0-6.9-1.4-13.4-1.7-5.1-0.3-12.6-0.4-17.1 0-6 0.5-11.7 2.1-11.7 2.1z"/>
				<path id="&lt;Path&gt;" class="s8" d="m343.7 152.9c0 0-10.3 22.7-4.3 65 12.1 0 34.4 0 40.3 0 0.6-6.1-1.5-36.3 6.2-65.4 0 0-6.9-1.4-13.4-1.7-5.1-0.3-12.6-0.4-17.1 0-6 0.5-11.7 2.1-11.7 2.1z"/>
			</g>
			<path id="&lt;Path&gt;" class="s9" d="m334.3 417.1c0 1.1 15.2 2 34.1 2 18.9 0 34.3-0.9 34.4-2 0-1-15.3-1.9-34.1-1.9-18.9 0-34.3 0.9-34.4 1.9z"/>
			<path id="&lt;Path&gt;" class="s6" d="m368.3 406.1l-7.1 2.8-6.2-16 7.2-2.7z"/>
			<path id="&lt;Path&gt;" class="s6" d="m393.1 409.5h-7.6l-2.7-17.5h7.5z"/>
			<path id="&lt;Path&gt;" class="s10" d="m385 408.6h8.5c0.3 0 0.6 0.2 0.6 0.5l1.1 6.7c0.1 0.7-0.5 1.3-1.2 1.3-2.9 0-4.4-0.2-8.1-0.2-2.3 0-7 0.2-10.2 0.2-3 0-3.3-3.1-2-3.4 5.8-1.2 8.1-3 10.1-4.7 0.3-0.3 0.8-0.4 1.2-0.4z"/>
			<path id="&lt;Path&gt;" class="s10" d="m360 405.9l8-2.3c0.3-0.1 0.6 0.1 0.7 0.3l3 6c0.3 0.6 0 1.4-0.7 1.6-2.9 0.8-4.9 1.3-8.5 2.4-2.6 0.7-5.1 1.9-7.6 2.7-1.7 0.5-5.7 0.5-7.8 0.5-3.1 0-3.8-3.2-2.5-3.4 3.4-0.3 3.8-0.2 5.7-1.1 3-1.5 5.4-2.8 8-5.6 0.5-0.5 1-0.9 1.7-1.1z"/>
			<path id="&lt;Path&gt;" class="s6" d="m301.8 191.5l-8.3-3.5-3.4 9.2c0 0 4.8 0.8 10.3 0z"/>
			<path id="&lt;Path&gt;" class="s6" d="m287.4 187.8l-0.2 6.1 2.9 3.3 3.4-9.2z"/>
			<g id="&lt;Group&gt;">
				<path id="&lt;Path&gt;" class="s11" d="m355 392.9l3.2 8.2 7.1-2.7-3.1-8.2z"/>
				<path id="&lt;Path&gt;" class="s11" d="m390.3 392h-7.5l1.4 9h7.5z"/>
			</g>
			<path id="&lt;Path&gt;" class="s8" d="m338.1 206.5q0.2 2.7 0.6 5.5l29.9-9.7c4.7-1.4 8.7-4.3 11.5-8.3q0.2-4 0.5-8.4 0.2-2.2 0.4-4.4 0.2-2.3 0.5-4.7z"/>
			<path id="&lt;Path&gt;" class="s5" d="m347.9 173.7l-1-0.1c0.6-5 4.3-9 8.2-8.9v1.1c-3.4-0.1-6.7 3.4-7.2 7.9z"/>
			<path id="&lt;Path&gt;" class="s5" d="m353.2 182.9q-0.1 0-0.1 0v-1c3.4 0.1 6.7-3.5 7.2-7.9l1 0.1c-0.6 4.9-4.2 8.8-8.1 8.8z"/>
			<path id="&lt;Path&gt;" class="s6" d="m371.9 131.5c-1.4 5.5-3.1 15.6 0.6 19.3 0 0-2.6 5.6-12.8 5.6-9.3 0-4.3-5.6-4.3-5.6 6.2-1.5 6.3-6.1 5.5-10.3z"/>
			<path id="&lt;Path&gt;" class="s11" d="m367.4 135.2l-6.5 5.3c0.2 1 0.3 2 0.3 3 1.9 1.9 5.8-2.9 6.2-5.4 0.2-1.2 0.2-2.4 0-2.9z"/>
			<path id="&lt;Path&gt;" class="s11" d="m349.7 131.4c0.9 1.7 2.6 2.8 4.2 3.2 2.4 0.5 3.6-1.7 3-3.9-0.6-2-2.6-4.7-5-4.3-2.4 0.5-3.3 3.1-2.2 5z"/>
			<path id="&lt;Path&gt;" class="s10" d="m353.6 113.8c-3.7 1.7-5 16.6-0.3 18.8 4.7 2.2 7.4-22 0.3-18.8z"/>
			<path id="&lt;Path&gt;" class="s6" d="m373.1 123.2c-0.9 7.5-1.1 11.9-5.1 15.7-6 5.7-15 2.3-16.3-5.1-1.2-6.7 0.4-17.8 7.9-20.8 7.4-2.9 14.4 2.7 13.5 10.2z"/>
			<path id="&lt;Path&gt;" class="s10" d="m360.8 117.7c5.5-1.5 9.6-2.4 8.1 2.2-1.9 6.2-4.2 12.1-1.1 12.4 1.9 0.2 10.3-3.4 9.2-7-0.9-3.1 3-4 3.7-5.6 2.6-5.8-4.8-5-3.5-8.5 1.3-3.4-6-9.1-10-6.3-6.5 4.5-17.7 4.4-11.8-3 4.2-5.3-3.3-4.2-3.3-4.2 0 0 4.5 2.6-3.1 6.8-8.1 4.4-0.7 16.3 11.8 13.2z"/>
			<path id="&lt;Path&gt;" class="s6" d="m375.9 131.4c-1.1 1.7-2.9 2.8-4.6 3.2-2.4 0.5-3.4-1.7-2.5-3.9 0.9-2 3.2-4.7 5.5-4.3 2.3 0.5 3 3.1 1.6 5z"/>
			<path id="&lt;Path&gt;" class="s7" d="m339.4 217.9c0 0-6.8 60.5-7.3 83.5-0.5 23.9 22.9 98.4 22.9 98.4l12-5.1c0 0-14-68-12-91.5 2.1-25.5 10.9-85.3 10.9-85.3z"/>
			<path id="&lt;Path&gt;" class="s8" d="m356.2 234.6c-5.4 11.1-1.8 33.2 1.2 46.3 1.1-9.2 2.4-19.3 3.6-28.5-0.1-14.3-1.2-25.4-4.8-17.8z"/>
			<path id="&lt;Path&gt;" class="s7" d="m366.5 390.8c0 0 1.4 3.9 1.4 3.9l-13.8 5.8-2.2-4.1z"/>
			<path id="&lt;Path&gt;" class="s7" d="m353.7 217.9c0 0 5.2 57.6 8.6 79.1 3.7 23.6 18.5 102.3 18.5 102.3h13.8c0 0-8.3-76.8-9.9-100.1-1.6-25.4-5-81.3-5-81.3z"/>
			<path id="&lt;Path&gt;" class="s7" d="m394.8 395.7c0 0 0.4 3.8 0.4 3.8h-15.1l-1.1-4.4z"/>
			<path id="&lt;Path&gt;" class="s8" d="m389.5 391.1q-0.1 0-0.1-0.1c-0.1-0.7-7.6-70-9-91-1.5-22.7-4.5-73.3-4.6-73.8q0-0.1 0.2-0.1 0 0 0 0 0.1 0 0.1 0.1c0 0.5 3.1 51 4.6 73.8 1.4 21 8.8 90.3 8.9 91q0 0.1-0.1 0.1 0 0 0 0z"/>
			<path id="&lt;Path&gt;" class="s10" d="m361.6 125.3c0 0.6-0.4 1.1-0.8 1.1-0.4 0-0.6-0.5-0.6-1.1 0-0.6 0.4-1.1 0.8-1.1 0.4 0 0.7 0.5 0.6 1.1z"/>
			<path id="&lt;Path&gt;" class="s10" d="m354.8 125.3c-0.1 0.6-0.4 1.1-0.8 1.1-0.4 0-0.7-0.5-0.7-1.1 0.1-0.6 0.4-1.1 0.8-1.1 0.4 0 0.7 0.5 0.7 1.1z"/>
			<path id="&lt;Path&gt;" class="s12" d="m356.9 125.6c0 0-1.6 3.5-3.2 5.2 1 1 2.9 0.5 2.9 0.5z"/>
			<path id="&lt;Path&gt;" class="s10" d="m357.1 133.9c-0.1 0-0.2-0.1-0.2-0.2 0-0.1 0.1-0.2 0.2-0.2 2.7 0 4-1.8 4.1-1.9 0 0 0.1-0.1 0.2 0 0.1 0 0.1 0.2 0 0.2 0 0.1-1.4 2.1-4.3 2.1z"/>
			<path id="&lt;Path&gt;" class="s10" d="m362.8 123.4q-0.1 0.1-0.3 0c-1.3-0.8-2.5-0.3-2.5-0.2-0.2 0-0.4 0-0.5-0.2-0.1-0.2 0-0.4 0.2-0.5 0.1 0 1.6-0.7 3.2 0.3 0.2 0.1 0.2 0.3 0.1 0.5q0 0.1-0.2 0.1z"/>
			<path id="&lt;Path&gt;" class="s10" d="m352.1 121.5q-0.1-0.1-0.1-0.1c-0.2-0.2-0.2-0.4 0-0.5 1.4-1.5 3-1.3 3.1-1.3 0.1 0.1 0.3 0.2 0.2 0.4 0 0.2-0.2 0.4-0.4 0.3 0 0-1.3-0.1-2.4 1-0.1 0.2-0.3 0.2-0.4 0.2z"/>
			<path id="&lt;Path&gt;" class="s6" d="m389.7 162.3l-10.4-2.8c0 0-10.2 25.2-13.8 26.8-4.9 2.2-17.3 9.9-22.6 13.7-0.3 1.2 0 4.5 0.6 5.4 9-1.6 26.3-8.2 29.9-11.6 8.2-7.7 16.3-31.5 16.3-31.5z"/>
			<path id="&lt;Compound Path&gt;" class="s7" d="m382.5 409.9c-0.6 0-1.1-0.1-1.5-0.4q-0.3-0.3-0.3-0.9c0.1-0.3 0.2-0.5 0.4-0.5 0.8-0.5 3.2 1 3.4 1.2q0.1 0.1 0.1 0.2 0 0.1-0.1 0.1c-0.6 0.2-1.3 0.3-2 0.3zm-1.1-1.6q-0.1 0-0.2 0.1c0 0-0.1 0.1-0.1 0.2q-0.1 0.4 0.2 0.6c0.4 0.4 1.4 0.4 2.7 0.2-0.9-0.5-2-1.1-2.6-1.1z"/>
			<path id="&lt;Compound Path&gt;" class="s7" d="m384.4 409.6q0 0-0.1 0c-0.7-0.4-2.1-2.1-1.9-2.9 0-0.2 0.1-0.4 0.6-0.5q0.4 0 0.7 0.3c0.8 0.7 0.9 2.8 0.9 2.9q0 0.1-0.1 0.2 0 0-0.1 0zm-1.3-3q-0.1 0-0.1 0c-0.2 0-0.3 0.1-0.3 0.2-0.1 0.5 0.8 1.7 1.5 2.3 0-0.6-0.2-1.9-0.7-2.4q-0.2-0.1-0.4-0.1z"/>
			<path id="&lt;Compound Path&gt;" class="s7" d="m355.9 408.7c-0.7 0.1-1.4 0.2-1.9-0.1q-0.4-0.2-0.5-0.7 0-0.3 0.2-0.6c0.9-0.7 4.1 0.1 4.5 0.2q0.1 0 0.1 0.1 0 0.2-0.1 0.2c-0.6 0.3-1.5 0.7-2.3 0.9zm-1.6-1.2q-0.2 0-0.3 0.1-0.1 0.1-0.1 0.2 0 0.4 0.3 0.5c0.5 0.3 1.8 0.1 3.4-0.6-1.1-0.2-2.6-0.4-3.3-0.2z"/>
			<path id="&lt;Compound Path&gt;" class="s7" d="m358.2 407.8q-0.1 0-0.1 0c-1-0.1-3-1.3-3.1-2.2 0-0.2 0.1-0.4 0.6-0.6q0.5-0.2 1 0.1c1.1 0.5 1.7 2.4 1.7 2.5q0 0.1 0 0.2-0.1 0-0.1 0zm-2.4-2.5q-0.1 0-0.1 0c-0.3 0.2-0.3 0.3-0.3 0.3 0 0.5 1.4 1.5 2.5 1.8-0.2-0.5-0.7-1.7-1.4-2q-0.4-0.2-0.7-0.1z"/>
			<path id="&lt;Path&gt;" class="s6" d="m343.8 199.4l-10.4 4.8-1.3 2.9 3.9 2.6c0 0 7.2-0.8 9.2-5.4z"/>
			<path id="&lt;Path&gt;" class="s10" d="m344.2 205.6c-0.6-3.9-1.9-5.6-1.9-5.7l1.6-1.2c0.1 0.1 1.6 2.1 2.3 6.6z"/>
			<path id="&lt;Path&gt;" class="s10" d="m346 200.8c0.3 0.8-0.2 1.8-1.2 2.2-1 0.5-2.1 0.1-2.5-0.7-0.3-0.9 0.3-1.9 1.3-2.3 1-0.4 2.1 0 2.4 0.8z"/>
			<path id="&lt;Path&gt;" class="s6" d="m326.3 208l1.4 1.5 9.3-4.1-3.6-1.2z"/>
			<path id="&lt;Path&gt;" class="s8" d="m366.5 390.8c0 0 1.4 3.9 1.4 3.9l-13.8 5.8-2.2-4.1z"/>
			<path id="&lt;Path&gt;" class="s8" d="m394.8 395.7c0 0 0.4 3.8 0.4 3.8h-15.1l-1.1-4.4z"/>
			<g id="&lt;Group&gt;">
				<path id="&lt;Path&gt;" class="s7" d="m392.4 159.4c2.8 8.9-7.9 21-7.9 21l-14.9-6c0 0 2.1-6.5 6.1-15.1 4.5-9.8 14-8.8 16.7 0.1z"/>
				<path id="&lt;Path&gt;" class="s8" d="m392.4 159.4c2.8 8.9-7.9 21-7.9 21l-14.9-6c0 0 2.1-6.5 6.1-15.1 4.5-9.8 14-8.8 16.7 0.1z"/>
			</g>
		</g>
	</g>
	<g id="Screen">
		<g id="&lt;Group&gt;">
			<path id="&lt;Path&gt;" class="s7" d="m244.9 71.6h-6.4v-1h6.4z"/>
			<path id="&lt;Path&gt;" class="s7" d="m327.9 128.5h-1.1l0.8-17.2 1 0.1z"/>
			<path id="&lt;Path&gt;" class="s7" d="m325.6 75.2h-118l-11 245.7h118z"/>
			<path id="&lt;Path&gt;" class="s13" d="m322.1 78.6h-118l-11 245.7h118z"/>
			<path id="&lt;Path&gt;" class="s14" d="m318.6 81.9h-118l-11 245.8h118z"/>
			<path id="&lt;Path&gt;" class="s5" d="m305.1 189.1h-100.7l-0.8 18.8h100.7z"/>
			<path id="&lt;Path&gt;" class="s7" d="m259.8 175.4h-54.8l-0.3 8.4h54.7z"/>
			<path id="&lt;Path&gt;" class="s5" d="m302.9 239.8h-100.7l-0.9 18.9h100.7z"/>
			<path id="&lt;Path&gt;" class="s15" d="m284.4 284h-67.7l-1 22.6h67.7z"/>
			<path id="&lt;Compound Path&gt;" class="s5" d="m279.9 310.1h-67.8q0 0 0-0.1-0.1 0-0.1-0.1l1-22.5q0-0.1 0.1-0.1h67.8q0 0 0.1 0 0 0.1 0 0.1l-1 22.6q0 0.1-0.1 0.1zm-67.6-0.3h67.5l1-22.3h-67.5z"/>
			<path id="&lt;Path&gt;" class="s7" d="m248 226.1h-45.2l-0.4 8.4h45.2z"/>
			<path id="&lt;Path&gt;" class="s5" d="m283.1 128.4c-0.2 5.6-2.3 10.8-5.6 15-4.9 6.4-12.6 10.6-21.2 10.6-8.5 0-15.8-4.2-20.2-10.6-2.9-4.2-4.5-9.4-4.2-15 0.6-14.2 12.6-25.6 26.7-25.6 14.2 0 25.1 11.4 24.5 25.6z"/>
			<path id="&lt;Path&gt;" class="s7" d="m285.5 108.1c-0.1 1.5-0.6 2.9-1.5 4-1.3 1.7-3.3 2.8-5.6 2.8-2.3 0-4.2-1.1-5.4-2.8-0.7-1.1-1.2-2.5-1.1-4 0.2-3.7 3.4-6.8 7.1-6.8 3.8 0 6.7 3.1 6.5 6.8z"/>
			<path id="&lt;Path&gt;" class="s10" d="m215.3 198.5c-0.1 1.7-1.5 3-3.2 3-1.6 0-2.9-1.3-2.9-3 0.1-1.7 1.5-3 3.2-3 1.7 0 2.9 1.3 2.9 3z"/>
			<path id="&lt;Path&gt;" class="s10" d="m228.8 198.5c-0.1 1.7-1.5 3-3.2 3-1.7 0-2.9-1.3-2.9-3 0.1-1.7 1.5-3 3.2-3 1.6 0 2.9 1.3 2.9 3z"/>
			<path id="&lt;Path&gt;" class="s10" d="m242.2 198.5c0 1.7-1.4 3-3.1 3-1.7 0-3-1.3-2.9-3 0.1-1.7 1.5-3 3.2-3 1.6 0 2.9 1.3 2.8 3z"/>
			<path id="&lt;Path&gt;" class="s10" d="m213 249.3c-0.1 1.6-1.5 3-3.2 3-1.6 0-2.9-1.4-2.8-3 0-1.7 1.5-3.1 3.1-3.1 1.7 0 3 1.4 2.9 3.1z"/>
			<path id="&lt;Path&gt;" class="s10" d="m226.5 249.3c-0.1 1.6-1.5 3-3.2 3-1.6 0-2.9-1.4-2.8-3 0-1.7 1.4-3.1 3.1-3.1 1.7 0 3 1.4 2.9 3.1z"/>
			<path id="&lt;Path&gt;" class="s10" d="m240 249.3c-0.1 1.6-1.5 3-3.2 3-1.6 0-2.9-1.4-2.9-3 0.1-1.7 1.5-3.1 3.2-3.1 1.7 0 2.9 1.4 2.9 3.1z"/>
			<path id="&lt;Path&gt;" class="s10" d="m253.5 249.3c-0.1 1.6-1.5 3-3.2 3-1.7 0-2.9-1.4-2.9-3 0.1-1.7 1.5-3.1 3.2-3.1 1.6 0 2.9 1.4 2.9 3.1z"/>
			<path id="&lt;Path&gt;" class="s10" d="m266.9 249.3c0 1.6-1.4 3-3.1 3-1.7 0-3-1.4-2.9-3 0.1-1.7 1.5-3.1 3.2-3.1 1.6 0 2.9 1.4 2.8 3.1z"/>
			<g id="&lt;Group&gt;">
				<path id="&lt;Path&gt;" class="s7" d="m268.2 119.8c-0.2 5.7-5.1 10.4-10.8 10.4-5.7 0-10.1-4.7-9.9-10.4 0.3-5.7 5.1-10.3 10.8-10.3 5.8 0 10.2 4.6 9.9 10.3z"/>
				<path id="&lt;Path&gt;" class="s7" d="m277.5 143.4c-4.9 6.4-12.6 10.6-21.2 10.6-8.5 0-15.8-4.2-20.2-10.6 4.9-4.8 12.6-8 21.1-8 8.5 0 15.9 3.2 20.3 8z"/>
				<path id="&lt;Path&gt;" class="s16" d="m268.2 119.8c-0.2 5.7-5.1 10.4-10.8 10.4-5.7 0-10.1-4.7-9.9-10.4 0.3-5.7 5.1-10.3 10.8-10.3 5.8 0 10.2 4.6 9.9 10.3z"/>
				<path id="&lt;Path&gt;" class="s16" d="m277.5 143.4c-4.9 6.4-12.6 10.6-21.2 10.6-8.5 0-15.8-4.2-20.2-10.6 4.9-4.8 12.6-8 21.1-8 8.5 0 15.9 3.2 20.3 8z"/>
			</g>
		</g>
	</g>
	<g id="Character 1">
		<g id="&lt;Group&gt;">
			<g id="&lt;Group&gt;">
				<path id="&lt;Path&gt;" class="s6" d="m130.4 212.4c-0.9 2.1-1.9 4.4-2.8 6.6-0.9 2.3-1.8 4.5-2.5 6.8-1.5 4.6-2.9 9.2-3.6 13.8l-0.2 1.5q-0.1 0.3 0 0.7c0.2 0.7 0.6 1.5 1.1 2.4 1.2 1.6 2.8 3.4 4.5 4.9 1.7 1.6 3.6 3.2 5.5 4.7 1.9 1.4 3.9 2.9 5.9 4.2l-1.8 3.5c-4.8-2-9.2-4.5-13.5-7.7-2.1-1.6-4.2-3.3-6.1-5.6-0.9-1.2-1.8-2.5-2.4-4.3-0.2-0.9-0.4-1.9-0.4-2.9 0-0.3 0-0.6 0-0.8v-0.5l0.1-1c0.6-5.3 1.8-10.4 3.3-15.3 0.8-2.5 1.6-4.9 2.6-7.3 0.9-2.5 1.9-4.8 3.1-7.2z"/>
				<path id="&lt;Path&gt;" class="s6" d="m136.9 257.4l7.1-3.6-1.8 7.8c0 0-4.9 1.4-7.2-1z"/>
				<path id="&lt;Path&gt;" class="s6" d="m150.5 255.1l-1.9 6.4-6.4 0.1 1.8-7.8z"/>
				<path id="&lt;Path&gt;" class="s12" d="m160.4 175c0 0 0.6 2.3 1.6 4-0.8 0.7-1.6 0.5-1.6 0.5z"/>
				<path id="&lt;Path&gt;" class="s10" d="m159.5 173.9c0 0.6 0.3 1.2 0.7 1.2 0.4 0 0.8-0.6 0.8-1.2 0-0.6-0.4-1.1-0.8-1.1-0.4 0-0.7 0.5-0.7 1.1z"/>
				<path id="&lt;Path&gt;" class="s10" d="m160 172.8l1.6-0.4c0 0-0.8 1.2-1.6 0.4z"/>
				<path id="&lt;Path&gt;" class="s6" d="m140.9 182.3c0.9 4.7 1.8 13.2-1.4 16.3 0 0 1.2 4.7 9.9 4.7 9.5 0 4.5-4.7 4.5-4.7-5.2-1.2-5-5.1-4.1-8.7z"/>
				<path id="&lt;Path&gt;" class="s6" d="m138.4 171.7c0.4 7.8 0.5 11.1 4.4 15.1 5.9 6 15.4 3.7 17.2-4 1.7-7 0.6-18.6-7-21.7-7.5-3-15.1 2.9-14.6 10.6z"/>
				<path id="&lt;Path&gt;" class="s10" d="m139.1 162.9c-3.9 1.5-9.1 0.4-7 12.4 2.1 12.8-1.2 17-1.2 17 0 0 14.8 3.1 29.9-0.2 0 0-4.6-8.1-3.3-14 1.6-7.5 0.3-10.2 0.3-10.2 0 0-13.2-6.9-18.7-5z"/>
				<path id="&lt;Path&gt;" class="s6" d="m155.6 175.8c0 1.5 0.6 3.1 1.3 4.2 1 1.6 2.3 0.9 2.6-0.8 0.3-1.5 0.1-4.1-1.3-5.2-1.3-1-2.5 0-2.6 1.8z"/>
				<path id="&lt;Path&gt;" class="s10" d="m135.8 164.3c-1.2-3.1 4.2-8 15.5-6 11.3 2 11.8 11.4 11.8 11.4l-2.3-2.7 0.1 2.9-11.6 2.2z"/>
				<g id="&lt;Group&gt;">
					<path id="&lt;Path&gt;" class="s7" d="m136.7 199.2c-0.1-1 0.5-1.9 1.5-2.1 3.5-0.5 11.5-1.7 15.5-1.2 3 0.4 3.8 2.2 3.9 3.6 0.1 1.1-0.8 2-1.8 1.9l-17.4-0.8c-0.9 0-1.6-0.6-1.7-1.4z"/>
					<path id="&lt;Path&gt;" class="s17" d="m136.7 199.2c-0.1-1 0.5-1.9 1.5-2.1 3.5-0.5 11.5-1.7 15.5-1.2 3 0.4 3.8 2.2 3.9 3.6 0.1 1.1-0.8 2-1.8 1.9l-17.4-0.8c-0.9 0-1.6-0.6-1.7-1.4z"/>
				</g>
				<path id="&lt;Path&gt;" class="s6" d="m146.8 373.9l6.4 4.4 10.8-14.6-6.4-4.5z"/>
				<path id="&lt;Path&gt;" class="s6" d="m131.7 373.6l6.8 3.8 9.6-15.4-6.8-3.9z"/>
				<g id="&lt;Group&gt;">
					<path id="&lt;Path&gt;" class="s11" d="m164 363.7l-5.6 7.6-6.4-4.5 5.5-7.6z"/>
					<path id="&lt;Path&gt;" class="s11" d="m141.3 358.1l6.8 3.9-4.9 8-6.9-3.9z"/>
				</g>
				<g id="&lt;Group&gt;">
					<path id="&lt;Path&gt;" class="s7" d="m152.2 248c0 0 25.2 31.7 20.5 62.1-3.9 24.5-26 57.7-26 57.7l-10.3-5.2c0 0 11.2-22 18.7-45.4 3.1-9.8 1.7-20.6-4.1-29.1-12.7-18.7-33.2-7.6-19.4-40.1z"/>
					<path id="&lt;Path&gt;" class="s17" d="m152.2 248c0 0 25.2 31.7 20.5 62.1-3.9 24.5-26 57.7-26 57.7l-10.3-5.2c0 0 11.2-22 18.7-45.4 3.1-9.8 1.7-20.6-4.1-29.1-12.7-18.7-33.2-7.6-19.4-40.1z"/>
				</g>
				<path id="&lt;Path&gt;" class="s18" d="m164.5 268.4l-3.6-3.7c0 0.3 7.1 44.1 9.1 56.4 1.2-3.8 2.1-7.5 2.7-11 2.3-14.9-2.6-30.1-8.2-41.7z"/>
				<g id="&lt;Group&gt;">
					<path id="&lt;Path&gt;" class="s7" d="m163.4 248c0 0 30.4 39.9 31.2 63.8 0.7 20-33 58.7-33 58.7l-9.8-6.3c0 0 19.7-27.5 24.7-50-1.9-22.3-42.6-66.2-42.6-66.2z"/>
					<path id="&lt;Path&gt;" class="s17" d="m163.4 248c0 0 30.4 39.9 31.2 63.8 0.7 20-33 58.7-33 58.7l-9.8-6.3c0 0 19.7-27.5 24.7-50-1.9-22.3-42.6-66.2-42.6-66.2z"/>
				</g>
				<path id="&lt;Path&gt;" class="s7" d="m125.9 200.4c-3.2 0.8-6.3 12.6-6.3 12.6l12.6 8.4c0 0 4.3-9.3 2.8-13.4-1.5-4.2-5-8.6-9.1-7.6z"/>
				<path id="&lt;Path&gt;" class="s8" d="m128.4 208l-0.9 10.3 4.7 3.1c0 0 2.3-4.9 2.9-9.1z"/>
				<path id="&lt;Path&gt;" class="s7" d="m167.2 200.6c0 0 3.7 1.4-3.8 47.4-12.6 0-25.7 0-31.8 0 0.5-13 0.5-21-5.7-47.6 0 0 6.7-1.4 13.6-1.8 5.3-0.2 9.7-0.4 14.4 0 6.2 0.6 13.3 2 13.3 2z"/>
				<path id="&lt;Path&gt;" class="s6" d="m170.4 207.9c0.8 2 1.5 4.2 2.3 6.3q1.2 3.1 2.4 6.3l2.4 6.2 0.7 1.6 0.3 0.8 0.1 0.4c0 0.1 0 0.1 0 0.1 0-0.1 0-0.3-0.7-0.7-0.3-0.2-0.8-0.3-1.3-0.4-0.5 0-0.9 0.1-1.1 0.2-0.4 0.3-0.4 0.4-0.4 0.3 0 0 0.1-0.1 0.2-0.2 0.4-0.5 1-1.4 1.4-2.3q0.7-1.4 1.4-2.9c0.9-2 1.7-4.1 2.5-6.2q1.2-3.1 2.3-6.3l2.3-6.4 3.9 1c-0.8 4.6-1.8 9-3 13.5q-0.8 3.4-2 6.7-0.5 1.7-1.3 3.4c-0.5 1.2-1 2.3-1.9 3.7-0.2 0.3-0.5 0.6-0.8 1-0.4 0.4-0.9 0.9-1.8 1.3-0.5 0.2-1.2 0.4-2 0.4-0.8 0-1.6-0.3-2.1-0.7-1.1-0.7-1.5-1.3-1.8-1.8-0.2-0.3-0.3-0.6-0.4-0.7l-0.2-0.4-0.4-0.8-0.7-1.6q-1.5-3.1-2.9-6.3-1.4-3.1-2.6-6.4c-0.9-2.1-1.7-4.2-2.4-6.6z"/>
				<path id="&lt;Path&gt;" class="s7" d="m167.2 200.6c3.8 0.9 8.1 12.3 8.1 12.3l-11.4 9.7c0 0-7.3-12.4-5.8-16.4 1.5-4.3 4.1-6.8 9.1-5.6z"/>
				<path id="&lt;Path&gt;" class="s6" d="m187 201.2l4-3.4 2.7 4.4-2 3.6c0 0-3.3 3-6.1 1.5-1-2.2-0.4-4.6 1.4-6.1z"/>
				<path id="&lt;Path&gt;" class="s6" d="m198.2 197.9l-0.3 1-6.3 1.1-0.6-2.2z"/>
				<path id="&lt;Path&gt;" class="s7" d="m162.4 371.1l-11.4-7.4 2-3.6 12.9 7.9z"/>
				<path id="&lt;Compound Path&gt;" class="s10" d="m143 376.9c-0.9 0-2.1-0.6-2.8-1q-0.1 0-0.1-0.1 0-0.2 0.1-0.2c0.3-0.1 3-0.9 3.8-0.3 0.1 0.1 0.2 0.3 0.2 0.6q-0.1 0.7-0.6 0.9-0.3 0.1-0.6 0.1zm-2.3-1.1c1.3 0.7 2.3 0.9 2.8 0.7q0.3-0.2 0.3-0.6c0-0.2 0-0.2-0.1-0.3-0.4-0.3-1.9-0.1-3 0.2z"/>
				<path id="&lt;Compound Path&gt;" class="s10" d="m140.2 376q0 0-0.1-0.1-0.1-0.1 0-0.2c0-0.1 0.6-2.2 1.6-2.7q0.5-0.2 0.9 0c0.4 0.1 0.4 0.4 0.4 0.6 0 0.9-1.9 2.2-2.7 2.4q0 0-0.1 0zm2-2.8q-0.2 0-0.3 0.1c-0.6 0.3-1.1 1.5-1.4 2.2 0.9-0.4 2.1-1.4 2.2-1.9 0-0.1-0.1-0.2-0.3-0.3q-0.1-0.1-0.2-0.1z"/>
				<path id="&lt;Compound Path&gt;" class="s10" d="m157.3 381.2c-1.2 0-2.7-1.4-3.6-2.3q-0.1-0.1 0-0.2c0-0.1 0.1-0.1 0.2-0.1 0.4 0 3.8 0.5 4.3 1.5q0.2 0.3 0 0.6-0.3 0.5-0.8 0.5-0.1 0-0.1 0zm-2.9-2.2c1.2 1.3 2.3 2 3 1.9q0.3-0.1 0.5-0.4 0.1-0.1 0-0.2c-0.3-0.6-2.1-1-3.5-1.3z"/>
				<path id="&lt;Compound Path&gt;" class="s10" d="m154.5 379q-0.4 0-0.7 0-0.1-0.1-0.1-0.2-0.1-0.1 0-0.1c0.1-0.1 1.4-1.7 2.7-1.8q0.6-0.1 1 0.3c0.4 0.3 0.4 0.6 0.3 0.8-0.3 0.7-2.1 1-3.2 1zm-0.3-0.4c1.1 0.1 2.9-0.3 3.2-0.8 0 0 0-0.1-0.2-0.3q-0.3-0.3-0.8-0.3c-0.8 0.1-1.8 1-2.2 1.4z"/>
				<path id="&lt;Path&gt;" class="s7" d="m140.5 374.9l-8.5-2.4c-0.3-0.1-0.6 0.1-0.7 0.4l-2.9 6.4c-0.3 0.7 0.1 1.5 0.9 1.7 2.9 0.8 4.4 1 8.1 2.1 2.3 0.6 5.6 1.8 8.8 2.7 3.1 0.9 4.2-2.2 3-2.9-5.6-2.9-6-4.9-7.5-7.2-0.3-0.4-0.7-0.7-1.2-0.8z"/>
				<path id="&lt;Path&gt;" class="s7" d="m153.9 377.7l-7.2-5c-0.3-0.2-0.6-0.1-0.8 0.1l-4.8 5.2c-0.5 0.5-0.4 1.4 0.2 1.8 2.6 1.7 3.9 2.4 7.1 4.6 1.9 1.4 5.8 4.4 8.6 6.3 2.6 1.8 4.7-0.7 3.7-1.7-4.3-4.6-5.2-7.5-6-10.1-0.1-0.5-0.4-0.9-0.8-1.2z"/>
				<path id="&lt;Path&gt;" class="s7" d="m148.1 368.4l-13.1-6.5 1.4-3.5 13.9 6.8z"/>
				<g id="&lt;Group&gt;">
					<path id="&lt;Path&gt;" class="s7" d="m131.1 246.1l-1.1 2.9c-0.1 0.2 0.1 0.4 0.5 0.4h33.1c0.3 0 0.5-0.1 0.5-0.3l0.3-2.9c0.1-0.2-0.2-0.3-0.5-0.3h-32.3c-0.2 0-0.4 0.1-0.5 0.2z"/>
					<path id="&lt;Path&gt;" class="s19" d="m131.1 246.1l-1.1 2.9c-0.1 0.2 0.1 0.4 0.5 0.4h33.1c0.3 0 0.5-0.1 0.5-0.3l0.3-2.9c0.1-0.2-0.2-0.3-0.5-0.3h-32.3c-0.2 0-0.4 0.1-0.5 0.2z"/>
				</g>
				<g id="&lt;Group&gt;">
					<path id="&lt;Path&gt;" class="s7" d="m136.3 249.7h-0.9c-0.1 0-0.3-0.1-0.2-0.2l0.4-3.7c0-0.1 0.1-0.2 0.3-0.2h0.9c0.1 0 0.3 0.1 0.2 0.2l-0.4 3.7c0 0.1-0.1 0.2-0.3 0.2z"/>
					<path id="&lt;Path&gt;" class="s7" d="m156.7 249.7h-0.9c-0.1 0-0.3-0.1-0.2-0.2l0.4-3.7c0-0.1 0.1-0.2 0.3-0.2h0.9c0.1 0 0.3 0.1 0.3 0.2l-0.5 3.7c0 0.1-0.1 0.2-0.3 0.2z"/>
				</g>
			</g>
			<g id="&lt;Group&gt;">
				<g id="&lt;Group&gt;">
					<path id="&lt;Path&gt;" class="s20" d="m108.8 417.1c-0.1 1.1 11.9 2 26.7 2 14.8 0 26.8-0.9 26.8-2 0.1-1-11.9-1.9-26.7-1.9-14.8 0-26.8 0.9-26.8 1.9z"/>
					<path id="&lt;Path&gt;" class="s1" d="m151.9 414.4c-4.8-1.4-10-3.1-13.2-5q-0.1-0.1-0.3-0.2v-21.4h9.5c1.6 0 2.9-1.3 2.9-2.9 0-1.5-1.3-2.8-2.9-2.8h-9.5v-97.8h-5.7v97.8h-9.5c-1.6 0-2.9 1.3-2.9 2.8 0 1.6 1.3 2.9 2.9 2.9h9.5v21.4q-0.1 0.1-0.3 0.2c-3.2 1.9-8.4 3.6-13.2 5-1.5 0.5-1.2 2.7 0.4 2.7h16 15.9c1.6 0 1.9-2.2 0.4-2.7z"/>
				</g>
				<g id="&lt;Group&gt;">
					<path id="&lt;Path&gt;" class="s7" d="m153.3 295.2h-35.5c-2.9 0-5.2-2.3-5.2-5.1v-10.6c0-2.9 2.3-5.2 5.2-5.2h35.5c2.9 0 5.2 2.3 5.2 5.2v10.6c0 2.8-2.3 5.1-5.2 5.1z"/>
					<g id="&lt;Group&gt;">
						<path id="&lt;Path&gt;" class="s7" d="m117.4 295.2v1.9c0 1.5 1.7 2.7 3.7 2.7h28.9c2 0 3.7-1.2 3.7-2.7v-1.9z"/>
						<path id="&lt;Path&gt;" class="s21" d="m117.4 295.2v1.9c0 1.5 1.7 2.7 3.7 2.7h28.9c2 0 3.7-1.2 3.7-2.7v-1.9z"/>
					</g>
				</g>
			</g>
		</g>
	</g>
</svg>